<?xml version="1.0" encoding="UTF-8"?>
<svg width="21px" height="20px" viewBox="0 0 21 20" version="1.1" xmlns="http://www.w3.org/2000/svg" xmlns:xlink="http://www.w3.org/1999/xlink">
    <!-- Generator: Sketch 52.5 (67469) - http://www.bohemiancoding.com/sketch -->
    <title>iconfinder_Sound70_3213450</title>
    <desc>Created with Sketch.</desc>
    <g id="Page-1" stroke="none" stroke-width="1" fill="none" fill-rule="evenodd">
        <g id="iconfinder_Sound70_3213450" transform="translate(0.000000, -2.000000)" fill="#00B9DA">
            <g id="Sound" transform="translate(0.000000, 2.420000)">
                <path d="M9.27142857,14.6771429 L0.628571429,14.6771429 C0.282857143,14.6771429 0,14.3942857 0,14.0485714 L0,5.40571429 C0,5.06 0.282857143,4.77714286 0.628571429,4.77714286 L9.27142857,4.77714286 C9.61714286,4.77714286 9.9,5.06 9.9,5.40571429 L9.9,14.0485714 C9.9,14.3942857 9.61714286,14.6771429 9.27142857,14.6771429 Z" id="Path"></path>
                <path d="M9.27142857,0.223142857 L0.229428571,9.26514286 C-0.066,9.56057143 -0.066,10.0382857 0.229428571,10.3337143 L9.27142857,19.3725714 C9.746,19.8471429 10.56,19.5108571 10.56,18.8382857 L10.56,0.757428571 C10.56,0.0848571429 9.746,-0.251428571 9.27142857,0.223142857 Z" id="horn"></path>
                <g id="_x3E_0_x25_" transform="translate(10.905714, 4.871429)">
                    <path d="M1.35771429,9.60771429 C2.30371429,8.65228571 2.97942857,7.40457143 3.19628571,6.072 C3.41942857,4.70171429 3.24028571,3.34085714 2.662,2.08057143 C2.34457143,1.39228571 1.88885714,0.763714286 1.35771429,0.229428571 C1.06857143,-0.0628571429 0.534285714,-0.0817142857 0.245142857,0.229428571 C-0.044,0.543714286 -0.0628571429,1.02771429 0.245142857,1.342 C0.355142857,1.452 0.458857143,1.56514286 0.559428571,1.68142857 C0.603428571,1.73485714 0.647428571,1.78828571 0.691428571,1.83857143 C0.760571429,1.92028571 0.572,1.67514286 0.666285714,1.804 C0.694571429,1.84171429 0.719714286,1.87628571 0.748,1.914 C0.917714286,2.14971429 1.06857143,2.398 1.20057143,2.65571429 C1.232,2.71542857 1.26028571,2.77514286 1.28857143,2.83485714 C1.31371429,2.89142857 1.408,3.13028571 1.31685714,2.88828571 C1.37028571,3.02342857 1.42371429,3.15857143 1.46771429,3.29685714 C1.55885714,3.57028571 1.628,3.85314286 1.67828571,4.13914286 C1.68457143,4.17685714 1.71914286,4.4 1.69714286,4.24914286 C1.67514286,4.10142857 1.70342857,4.31828571 1.70657143,4.35914286 C1.72228571,4.51 1.72857143,4.66085714 1.73171429,4.81171429 C1.738,5.09457143 1.70657143,5.37114286 1.68771429,5.65085714 C1.70657143,5.37742857 1.68771429,5.63514286 1.67828571,5.698 C1.66571429,5.77028571 1.65314286,5.83942857 1.63742857,5.91171429 C1.60914286,6.05314286 1.57142857,6.19457143 1.53371429,6.33285714 C1.496,6.45857143 1.45828571,6.58428571 1.41114286,6.70685714 C1.386,6.776 1.36085714,6.842 1.33257143,6.91114286 C1.28542857,7.03057143 1.35771429,6.85457143 1.36085714,6.84514286 C1.33571429,6.88914286 1.32,6.93942857 1.298,6.98657143 C1.15971429,7.282 0.999428571,7.56485714 0.814,7.83514286 C0.766857143,7.90428571 0.719714286,7.97028571 0.669428571,8.03628571 C0.594,8.14 0.700857143,7.99228571 0.710285714,7.986 C0.672571429,8.02057143 0.641142857,8.07085714 0.609714286,8.10857143 C0.496571429,8.24371429 0.377142857,8.37571429 0.251428571,8.50142857 C-0.0377142857,8.79371429 -0.0628571429,9.32485714 0.251428571,9.614 C0.559428571,9.89371429 1.04657143,9.91885714 1.35771429,9.60771429 Z" id="Path"></path>
                </g>
                <g id="_x3E_35_x25_" transform="translate(13.042857, 2.482857)">
                    <path d="M1.35771429,14.3848571 C2.79085714,12.9422857 3.79657143,11.0628571 4.13285714,9.05457143 C4.47542857,7.01171429 4.20514286,4.94371429 3.33457143,3.06114286 C2.85371429,2.01771429 2.16857143,1.06228571 1.35771429,0.248285714 C1.06857143,-0.044 0.534285714,-0.0628571429 0.245142857,0.248285714 C-0.044,0.562571429 -0.066,1.04657143 0.245142857,1.36085714 C0.418,1.53685714 0.587714286,1.716 0.748,1.90457143 C0.817142857,1.98628571 0.886285714,2.068 0.952285714,2.15285714 C0.971142857,2.17485714 0.99,2.20314286 1.00885714,2.22514286 C0.873714286,2.07428571 0.939714286,2.134 0.968,2.17485714 C1.00885714,2.22828571 1.04971429,2.28485714 1.09057143,2.33828571 C1.364,2.71857143 1.61228571,3.12085714 1.82285714,3.53885714 C1.87,3.63 1.914,3.72428571 1.958,3.81542857 C1.98314286,3.86885714 2.00828571,3.92228571 2.03028571,3.97571429 C2.04285714,4.004 2.05228571,4.02914286 2.06485714,4.05742857 C2.11828571,4.18314286 2.00828571,3.92228571 2.046,4.01028571 C2.13085714,4.22085714 2.20942857,4.43142857 2.28171429,4.64828571 C2.42314286,5.07571429 2.53,5.51257143 2.60857143,5.95571429 C2.618,6.01228571 2.62742857,6.06885714 2.63685714,6.12542857 C2.64628571,6.18828571 2.66828571,6.38942857 2.64,6.13171429 C2.65257143,6.248 2.66828571,6.36114286 2.67771429,6.47742857 C2.69657143,6.70057143 2.70914286,6.92371429 2.71542857,7.14685714 C2.72485714,7.60257143 2.68714286,8.052 2.64,8.50771429 C2.64,8.50142857 2.66828571,8.29714286 2.64942857,8.42914286 C2.64628571,8.45114286 2.64314286,8.47314286 2.64,8.492 C2.63057143,8.54857143 2.62114286,8.60514286 2.61171429,8.66171429 C2.59285714,8.77485714 2.57085714,8.888 2.54571429,9.00428571 C2.49857143,9.22428571 2.44514286,9.44114286 2.38228571,9.658 C2.31942857,9.88114286 2.244,10.1042857 2.16542857,10.3211429 C2.13085714,10.4185714 2.09314286,10.5128571 2.05228571,10.6071429 C2.00514286,10.7265714 2.07742857,10.5505714 2.08057143,10.5411429 C2.068,10.5662857 2.05857143,10.5945714 2.046,10.6228571 C2.02085714,10.6825714 1.99257143,10.7422857 1.96428571,10.8051429 C1.74428571,11.2765714 1.48657143,11.7291429 1.19114286,12.1565714 C1.11885714,12.2634286 1.04342857,12.364 0.964857143,12.4677143 C0.889428571,12.5714286 0.996285714,12.4268571 1.00571429,12.4174286 C0.980571429,12.4457143 0.958571429,12.4771429 0.936571429,12.5054286 C0.892571429,12.5588571 0.851714286,12.6122857 0.807714286,12.6657143 C0.628571429,12.8794286 0.443142857,13.0837143 0.245142857,13.2785714 C-0.044,13.5708571 -0.0691428571,14.102 0.245142857,14.3911429 C0.559428571,14.6708571 1.04657143,14.696 1.35771429,14.3848571 Z" id="Path"></path>
                </g>
                <g id="_x3E_70_x25_" transform="translate(15.557143, 0.785714)">
                    <path d="M1.35771429,17.7791429 C3.146,15.9814286 4.38742857,13.64 4.80542857,11.1351429 C5.22342857,8.624 4.88714286,6.06885714 3.81857143,3.75257143 C3.21828571,2.45142857 2.36657143,1.26028571 1.35771429,0.245142857 C1.06857143,-0.0471428571 0.534285714,-0.066 0.245142857,0.245142857 C-0.044,0.559428571 -0.066,1.04657143 0.245142857,1.35771429 C0.462,1.57457143 0.672571429,1.80085714 0.873714286,2.03657143 C0.971142857,2.15285714 1.06857143,2.26914286 1.16285714,2.38857143 C1.18171429,2.41371429 1.20057143,2.43571429 1.21942857,2.46085714 C1.08428571,2.29114286 1.15971429,2.38542857 1.19428571,2.42942857 C1.24457143,2.49542857 1.29485714,2.56142857 1.342,2.63057143 C1.69085714,3.11457143 2.002,3.62371429 2.27228571,4.15485714 C2.332,4.27428571 2.39171429,4.39057143 2.44514286,4.51314286 C2.47657143,4.57914286 2.508,4.64514286 2.53628571,4.71428571 C2.54885714,4.74257143 2.56142857,4.76771429 2.57085714,4.796 C2.58342857,4.82428571 2.59285714,4.84942857 2.60542857,4.87771429 C2.55828571,4.76457143 2.54571429,4.73628571 2.56771429,4.78971429 C2.67457143,5.05371429 2.77514286,5.31771429 2.86314286,5.588 C3.04542857,6.138 3.18371429,6.70057143 3.28114286,7.27257143 C3.29371429,7.34485714 3.30314286,7.414 3.31571429,7.48628571 C3.31885714,7.51457143 3.32514286,7.54285714 3.32828571,7.57114286 C3.35028571,7.72828571 3.30628571,7.40457143 3.322,7.51142857 C3.34085714,7.66228571 3.35971429,7.81314286 3.37228571,7.96085714 C3.39742857,8.24685714 3.41314286,8.536 3.41942857,8.822 C3.42885714,9.38457143 3.39428571,9.944 3.32514286,10.5034286 C3.30628571,10.6668571 3.35342857,10.3022857 3.33142857,10.4657143 C3.32828571,10.494 3.322,10.5222857 3.31885714,10.5505714 C3.30942857,10.6228571 3.29685714,10.692 3.28428571,10.7642857 C3.25914286,10.9057143 3.234,11.0471429 3.20257143,11.1885714 C3.14285714,11.4714286 3.07371429,11.7542857 2.992,12.0308571 C2.91028571,12.3105714 2.81914286,12.5871429 2.71857143,12.8574286 C2.67142857,12.98 2.62428571,13.1025714 2.574,13.2251429 C2.51428571,13.376 2.64942857,13.0491429 2.58657143,13.2 C2.574,13.2282857 2.56457143,13.2534286 2.552,13.2817143 C2.51742857,13.3634286 2.47971429,13.442 2.442,13.5237143 C2.16542857,14.1145714 1.84171429,14.6834286 1.46771429,15.2208571 C1.37342857,15.356 1.276,15.4911429 1.17542857,15.6231429 C1.08114286,15.752 1.26971429,15.5068571 1.20057143,15.5885714 C1.16914286,15.6294286 1.13457143,15.6734286 1.10314286,15.7142857 C1.056,15.774 1.00885714,15.8337143 0.958571429,15.8902857 C0.732285714,16.1605714 0.493428571,16.4214286 0.242,16.6728571 C-0.0471428571,16.9651429 -0.0722857143,17.4962857 0.242,17.7854286 C0.559428571,18.0651429 1.04657143,18.0902857 1.35771429,17.7791429 Z" id="Path"></path>
                </g>
            </g>
        </g>
    </g>
</svg>